<svg width="110" height="110" viewBox="0 0 110 110" fill="none" xmlns="http://www.w3.org/2000/svg">
<path d="M16.1681 98.0741L7.52792 1.1615H102.472L93.8229 98.0595L54.9422 108.839L16.1681 98.0741Z" fill="#1572B6"/>
<path d="M55.0008 100.6L86.4187 91.8898L93.8102 9.08554H55.0008V100.6Z" fill="#33A9DC"/>
<path d="M55.0008 44.1964H70.7291L71.8154 32.0251H55.0008V20.1391H84.8057L84.5204 23.3282L81.5985 56.0824H55.0008V44.1964Z" fill="white"/>
<path d="M55.0713 75.0653L55.0189 75.0808L41.7819 71.5067L40.9354 62.0269H29.0056L30.6702 80.6899L55.0171 87.4472L55.0713 87.4317V75.0653Z" fill="#EBEBEB"/>
<path d="M69.7185 55.5801L68.2868 71.4974L55.0301 75.0759V87.4423L79.3968 80.6893L79.5756 78.6809L81.6432 55.5801H69.7185Z" fill="white"/>
<path d="M55.0411 20.1391V32.0251H26.3311L26.0931 29.3542L25.5517 23.3282L25.2672 20.1391H55.0411ZM55.0007 44.1981V56.0842H41.9305L41.6924 53.4132L41.1502 47.3873L40.8666 44.1981H55.0007Z" fill="#EBEBEB"/>
</svg>
