<svg width="110" height="110" viewBox="0 0 110 110" fill="none" xmlns="http://www.w3.org/2000/svg">
<path d="M107.196 50.1686L59.8306 2.805C57.1046 0.0773481 52.6805 0.0773481 49.9503 2.805L40.1156 12.6414L52.592 25.1178C55.4924 24.139 58.8165 24.7956 61.1273 27.1064C63.4502 29.4319 64.1016 32.7843 63.0988 35.6941L75.1231 47.7194C78.0321 46.7165 81.3897 47.3645 83.7117 49.6916C86.9602 52.9375 86.9602 58.1995 83.7117 61.447C82.9398 62.2194 82.0232 62.832 81.0144 63.25C80.0056 63.6681 78.9243 63.8832 77.8323 63.8832C76.7403 63.8832 75.659 63.6681 74.6502 63.25C73.6414 62.832 72.7248 62.2194 71.9529 61.447C70.7931 60.2865 70.0025 58.8088 69.6806 57.2C69.3587 55.5911 69.5199 53.923 70.1439 52.4056L58.9308 41.1924L58.9291 70.7042C59.7426 71.1049 60.4854 71.6355 61.1282 72.2752C64.3749 75.521 64.3749 80.7813 61.1282 84.034C57.8806 87.2799 52.617 87.2799 49.3728 84.034C46.1261 80.7821 46.1261 75.5219 49.3728 72.2752C50.1507 71.4961 51.0759 70.8797 52.0945 70.4619V40.6768C51.0751 40.2602 50.1496 39.6433 49.3728 38.8627C46.9133 36.4049 46.3212 32.7955 47.5827 29.7739L35.2825 17.4737L2.805 49.9495C1.49473 51.2601 0.758656 53.0376 0.758656 54.8909C0.758656 56.7442 1.49473 58.5216 2.805 59.8323L50.1712 107.196C52.8988 109.924 57.3212 109.924 60.0531 107.196L107.197 60.0523C108.507 58.7412 109.243 56.9636 109.242 55.1103C109.242 53.2569 108.506 51.4794 107.196 50.1686Z" fill="#F34F29"/>
</svg>
