<svg width="110" height="110" viewBox="0 0 110 110" fill="none" xmlns="http://www.w3.org/2000/svg">
<path fill-rule="evenodd" clip-rule="evenodd" d="M18.1328 59.0391C18.3047 62.0469 21.3125 60.6719 22.6875 59.7266C23.9766 58.7813 24.4062 59.5547 24.4922 57.75C24.5781 56.5469 24.6641 55.4297 24.6641 54.2266C22.6875 54.0547 20.5391 54.4844 18.9062 55.6875C18.1328 56.2891 16.5 58.2656 18.1328 59.0391Z" fill="#F6D2A2"/>
<path d="M19.7656 61.1875C19.1641 61.1875 18.0469 60.9297 17.875 59.2109C17.3594 58.8672 17.1875 58.4375 17.1875 58.1797C17.1016 57.1484 18.2188 55.9453 18.8203 55.5156C20.1953 54.4844 22 53.9688 23.8906 53.9688H25.0078V54.2266C25.0938 55.1719 25.0078 56.1172 24.9219 56.9766C24.9219 57.2344 24.9219 57.4922 24.8359 57.75C24.75 59.0391 24.4922 59.2109 23.8906 59.4687C23.6328 59.5547 23.375 59.6406 22.9453 59.9844C22.5156 60.2422 21.0547 61.1875 19.7656 61.1875ZM23.8906 54.4844C22.0859 54.4844 20.4531 55 19.1641 55.9453C18.5625 56.375 17.7031 57.4062 17.7891 58.0937C17.7891 58.3516 17.9609 58.6094 18.3047 58.7813L18.4766 58.8672V59.0391C18.5625 60.4141 19.25 60.5859 19.7656 60.5859C20.625 60.5859 21.8281 59.9844 22.6016 59.4687C23.1172 59.125 23.4609 59.0391 23.7188 58.9531C24.1484 58.7812 24.2344 58.7812 24.3203 57.75C24.3203 57.4922 24.3203 57.2344 24.4063 56.9766C24.4922 56.2031 24.4922 55.3438 24.4922 54.5703C24.2344 54.4844 24.0625 54.4844 23.8906 54.4844Z" fill="black"/>
<path fill-rule="evenodd" clip-rule="evenodd" d="M18.1328 59.0391C18.5625 58.8672 19.0781 58.7812 19.3359 58.3516L18.1328 59.0391Z" fill="#C6B198"/>
<path d="M18.1328 59.2969C18.0469 59.2969 17.875 59.2109 17.875 59.125C17.7891 58.9531 17.875 58.7813 18.0469 58.7813C18.1328 58.7813 18.2187 58.6953 18.2187 58.6953C18.5625 58.5234 18.9062 58.4375 19.0781 58.1797C19.1641 58.0938 19.3359 58.0078 19.5078 58.0938C19.5937 58.1797 19.6797 58.3516 19.5937 58.5234C19.25 58.9531 18.8203 59.125 18.4766 59.2109L18.3047 59.2969H18.1328Z" fill="black"/>
<path fill-rule="evenodd" clip-rule="evenodd" d="M25.1797 22.6875C13.4922 19.4219 22.1719 4.55469 31.5391 10.6562L25.1797 22.6875Z" fill="#6AD7E5"/>
<path d="M25.3516 23.0312L25.0937 22.9453C19.0781 21.2266 19.1641 16.9297 19.3359 15.6406C19.7656 12.375 22.8594 8.9375 26.9844 8.9375C28.6172 8.9375 30.1641 9.45313 31.7109 10.4844L31.9687 10.6562L25.3516 23.0312ZM26.9844 9.53906C23.1172 9.53906 20.2812 12.7187 19.8516 15.7266C19.4219 18.8203 21.3125 21.2266 25.0078 22.3438L31.1094 10.7422C29.8203 9.96875 28.4453 9.53906 26.9844 9.53906Z" fill="black"/>
<path fill-rule="evenodd" clip-rule="evenodd" d="M77 9.53906C86.1953 3.09375 94.6172 17.7031 83.875 21.3984L77 9.53906Z" fill="#6AD7E5"/>
<path d="M83.7891 21.7422L76.6562 9.45312L76.9141 9.28125C78.5469 8.16406 80.1797 7.5625 81.8125 7.5625C85.7656 7.5625 88.6016 10.8281 89.2031 14.0078C89.4609 15.2969 89.7188 19.6797 84.0469 21.5703L83.7891 21.7422ZM77.4297 9.71094L84.0469 21.1406C87.3984 19.9375 89.1172 17.3594 88.6016 14.2656C88.0859 11.3438 85.4219 8.33594 81.8125 8.33594C80.3516 8.25 78.8906 8.67969 77.4297 9.71094Z" fill="black"/>
<path fill-rule="evenodd" clip-rule="evenodd" d="M79.0625 96.5078C81.3828 97.9688 85.6797 102.352 82.1562 104.5C78.8047 107.594 76.9141 101.062 73.9062 100.203C75.1953 98.4844 76.8281 96.8516 79.0625 96.5078Z" fill="#F6D2A2"/>
<path d="M80.3516 105.617C78.9766 105.617 77.7734 104.242 76.7422 102.953C75.7969 101.922 74.8516 100.805 73.8203 100.461L73.3906 100.375L73.6484 100.031C74.6797 98.5703 76.3984 96.6797 78.9766 96.25H79.0625L79.1484 96.3359C80.6094 97.2812 83.7891 99.9453 83.7031 102.437C83.7031 103.383 83.1875 104.156 82.2422 104.758C81.6406 105.359 81.0391 105.617 80.3516 105.617ZM74.3359 100.031C75.3672 100.461 76.2266 101.578 77.0859 102.523C78.1172 103.813 79.1484 104.93 80.2656 104.93C80.7812 104.93 81.2969 104.672 81.8125 104.156H81.8984C82.6719 103.641 83.1016 103.039 83.1016 102.266C83.1016 100.289 80.6094 97.7969 78.8906 96.6797C77.3438 97.1094 75.7969 98.1406 74.3359 100.031ZM82.1562 104.758C82.0703 104.758 81.9844 104.672 81.8984 104.586C81.7266 104.242 81.5547 103.813 81.4688 103.469C81.2109 102.781 80.9531 102.094 80.4375 101.578C80.3516 101.492 80.3516 101.32 80.4375 101.148C80.5234 101.062 80.6953 101.062 80.8672 101.148C81.4687 101.75 81.8125 102.523 82.0703 103.297L82.5 104.328C82.5859 104.5 82.5 104.672 82.4141 104.758H82.1562Z" fill="black"/>
<path fill-rule="evenodd" clip-rule="evenodd" d="M37.125 101.492C34.375 101.922 32.8281 104.414 30.5078 105.703C28.3594 106.992 27.5 105.273 27.3281 104.93C26.9844 104.758 26.9844 105.102 26.4687 104.586C24.4922 101.406 28.5312 99.0859 30.6797 97.5391C33.6875 96.8516 35.5781 99.4297 37.125 101.492Z" fill="#F6D2A2"/>
<path d="M29.0469 106.391C27.9297 106.391 27.3281 105.445 27.1563 105.102H27.0703C26.8125 105.102 26.6406 105.016 26.2969 104.672V104.586C24.4063 101.578 27.6719 99.2578 29.8203 97.7109L30.5938 97.1953H30.7656C31.1094 97.1094 31.3672 97.1094 31.7109 97.1094C34.2891 97.1094 35.9219 99.3437 37.2969 101.148L37.7266 101.75L37.2109 101.836C35.5781 102.094 34.375 103.125 33.1719 104.156C32.3984 104.844 31.625 105.445 30.7656 105.961C30.0781 106.219 29.5625 106.391 29.0469 106.391ZM27.1563 104.586C27.2422 104.586 27.3281 104.586 27.5 104.672H27.5859L27.6719 104.758C27.8438 105.016 28.2734 105.789 29.1328 105.789C29.5625 105.789 29.9922 105.617 30.4219 105.359C31.2813 104.93 32.0547 104.242 32.7422 103.641C33.8594 102.695 35.0625 101.664 36.6094 101.234C35.3203 99.5156 33.7734 97.625 31.625 97.625C31.3672 97.625 31.1094 97.625 30.8516 97.7109L30.1641 98.2266C27.9297 99.7734 25.1797 101.75 26.8125 104.328C26.8984 104.5 26.9844 104.586 27.1563 104.586ZM27.3281 105.188C27.1563 105.188 26.9844 105.016 27.0703 104.844C27.1563 103.984 27.5859 103.383 28.0156 102.695C28.2734 102.352 28.4453 102.008 28.6172 101.664C28.7031 101.492 28.875 101.492 28.9609 101.492C29.1328 101.578 29.1328 101.75 29.1328 101.836C28.9609 102.266 28.7031 102.609 28.4453 102.953C28.0156 103.555 27.6719 104.07 27.5859 104.758C27.5859 105.102 27.5 105.188 27.3281 105.188Z" fill="black"/>
<path fill-rule="evenodd" clip-rule="evenodd" d="M25.6953 18.6484C24.1484 17.875 23.0312 16.7578 23.9766 14.9531C24.8359 13.3203 26.4687 13.4922 28.0156 14.2656L25.6953 18.6484ZM81.4687 17.1016C83.0156 16.3281 84.1328 15.2109 83.1875 13.4062C82.3281 11.7734 80.6953 11.9453 79.1484 12.7187L81.4687 17.1016Z" fill="black"/>
<path fill-rule="evenodd" clip-rule="evenodd" d="M92.0391 58.6094C91.8672 61.6172 88.8594 60.2422 87.4844 59.2969C86.1953 58.3516 85.7656 59.125 85.6797 57.3203C85.5937 56.1172 85.5078 55 85.5078 53.7969C87.4844 53.625 89.6328 54.0547 91.2656 55.2578C92.125 55.9453 93.6719 57.8359 92.0391 58.6094Z" fill="#F6D2A2"/>
<path d="M90.4922 60.7578C89.2031 60.7578 87.7422 59.8125 87.3125 59.5547C86.8828 59.2969 86.625 59.125 86.3672 59.0391C85.6797 58.7812 85.5078 58.6094 85.4219 57.3203C85.4219 57.0625 85.4219 56.8047 85.3359 56.5469C85.25 55.6875 85.1641 54.7422 85.25 53.7969V53.5391H86.3672C88.2578 53.5391 90.0625 54.0547 91.4375 55.0859C92.0391 55.5156 93.1563 56.7187 93.0703 57.75C93.0703 58.0937 92.8984 58.5234 92.3828 58.7813C92.2109 60.5 91.0938 60.7578 90.4922 60.7578ZM85.7656 54.1406C85.7656 54.9141 85.7656 55.7734 85.8516 56.5469C85.8516 56.8047 85.8516 57.0625 85.9375 57.3203C86.0234 58.3516 86.1094 58.3516 86.5391 58.5234C86.7969 58.6094 87.1406 58.7812 87.6562 59.0391C88.4297 59.5547 89.6328 60.1563 90.4922 60.1563C91.0078 60.1563 91.6953 59.9844 91.7813 58.6094V58.4375L91.9531 58.3516C92.2969 58.1797 92.4687 58.0078 92.4687 57.6641C92.5547 56.9766 91.6953 55.9453 91.0937 55.5156C89.8047 54.5703 88.0859 54.0547 86.3672 54.0547C86.1953 54.1406 86.0234 54.1406 85.7656 54.1406Z" fill="black"/>
<path fill-rule="evenodd" clip-rule="evenodd" d="M92.0391 58.6094C91.6094 58.4375 91.0938 58.3516 90.8359 57.9219L92.0391 58.6094Z" fill="#C6B198"/>
<path d="M92.0391 58.9531H91.9531L91.7812 58.8672C91.3516 58.6953 90.9219 58.6094 90.6641 58.1797C90.5781 58.0938 90.5781 57.8359 90.75 57.75C90.8359 57.6641 91.0937 57.6641 91.1797 57.8359C91.3516 58.0938 91.6953 58.1797 92.0391 58.3516C92.125 58.3516 92.2109 58.4375 92.2109 58.4375C92.3828 58.5234 92.4687 58.6953 92.3828 58.7813C92.2969 58.8672 92.125 58.9531 92.0391 58.9531Z" fill="black"/>
<path fill-rule="evenodd" clip-rule="evenodd" d="M53.9687 3.4375C65.6562 3.4375 76.5703 5.07031 82.3281 16.3281C87.4844 28.875 85.5937 42.4531 86.4531 55.7734C87.1406 67.2031 88.6016 80.3516 83.3594 90.9219C77.7734 102.008 63.8516 104.844 52.4219 104.414C43.3984 104.07 32.5703 101.148 27.4141 92.8984C21.4844 83.2734 24.2344 68.9219 24.6641 58.1797C25.1797 45.4609 21.2266 32.6562 25.4375 20.2812C29.6484 7.30469 41.3359 4.38281 53.9687 3.4375Z" fill="#6AD7E5"/>
<path d="M54.3984 104.758H52.25C48.7266 104.672 43.3984 104.07 38.1562 101.922C33.0859 99.8594 29.3906 96.9375 26.9844 93.0703C22.1719 85.25 23.0312 74.5078 23.8047 64.9687C23.9766 62.5625 24.1484 60.3281 24.2344 58.1797C24.4062 53.7109 24.0625 49.0703 23.6328 44.6875C22.9453 36.6094 22.2578 28.2734 24.9219 20.1953C26.9844 14.1797 30.6797 9.88281 36.2656 7.13281C40.6484 4.98437 46.0625 3.78125 53.7969 3.17969C65.3125 3.09375 76.7422 4.72656 82.5 16.1562C86.2812 25.3516 86.2812 35.2344 86.3672 44.7734C86.3672 48.3828 86.3672 52.0781 86.625 55.6875C86.7109 56.8047 86.7969 57.9219 86.7969 59.0391C87.4844 69.5234 88.2578 81.3828 83.4453 91.0078C81.0391 95.9062 76.8281 99.5156 71.0703 101.836C66.4297 103.727 60.5859 104.758 54.3984 104.758ZM53.9687 3.69531C41.8516 4.64062 29.9922 7.30469 25.6094 20.3672C22.9453 28.3594 23.6328 36.6094 24.3203 44.6016C24.6641 49.0703 25.0937 53.625 24.9219 58.1797C24.8359 60.3281 24.6641 62.5625 24.4922 64.9687C23.7187 74.4219 22.8594 85.0781 27.5859 92.7266C29.5625 95.9062 35.9219 103.469 52.3359 104.07H54.4844C73.4766 104.07 80.5234 95.6484 83.1016 90.6641C87.8281 81.2109 87.0547 69.3516 86.4531 58.9531C86.3672 57.8359 86.2812 56.7187 86.2812 55.6016C86.1094 51.9922 86.0234 48.2969 86.0234 44.6875C85.9375 35.2344 85.9375 25.3516 82.2422 16.2422C79.6641 11.1719 75.7969 7.73437 70.4687 5.75781C64.9687 3.95312 58.7812 3.69531 53.9687 3.69531Z" fill="black"/>
<path fill-rule="evenodd" clip-rule="evenodd" d="M56.0312 19.0781C58.0937 31.2812 78.0312 28.0156 75.1953 15.7266C72.6172 4.72656 55.3437 7.82031 56.0312 19.0781Z" fill="white"/>
<path d="M65.4844 27.0703C61.6172 27.0703 56.7188 25.0078 55.6875 19.1641C55.5156 16.4141 56.375 13.9219 58.1797 12.0312C60.1562 9.88281 63.1641 8.67969 66.2578 8.67969C69.8672 8.67969 74.1641 10.5703 75.3672 15.8125C76.0547 18.7344 75.5391 21.3125 73.9063 23.375C72.1016 25.6094 68.9219 27.0703 65.4844 27.0703ZM56.2891 19.0781C56.7188 21.4844 57.8359 23.375 59.6406 24.75C61.1875 25.9531 63.3359 26.5547 65.4844 26.5547C68.6641 26.5547 71.7578 25.1797 73.4766 23.0312C75.0234 21.1406 75.4531 18.6484 74.8516 15.8984C73.7344 11 69.6953 9.28125 66.2578 9.28125C63.3359 9.28125 60.5 10.4844 58.6094 12.4609C56.9766 14.1797 56.1172 16.5 56.2891 19.0781Z" fill="black"/>
<path fill-rule="evenodd" clip-rule="evenodd" d="M32.2266 21.0547C34.9766 31.625 51.9063 28.9609 51.3047 18.3047C50.5313 5.58594 29.5625 7.99219 32.2266 21.0547Z" fill="white"/>
<path d="M41.25 28.1016C37.5547 28.1016 33.2578 26.2969 31.8828 21.1406C31.2813 18.1328 31.8828 15.3828 33.6016 13.3203C35.4922 11 38.5859 9.625 41.9375 9.625C46.4063 9.625 51.1328 12.2891 51.4766 18.3047C51.6484 20.7969 50.875 23.0313 49.1563 24.8359C47.3516 26.8125 44.3438 28.1016 41.25 28.1016ZM41.9375 10.2266C38.7578 10.2266 35.8359 11.5156 34.0313 13.6641C32.3984 15.6406 31.8828 18.1328 32.4844 20.9688C33.6875 25.7812 37.8125 27.5 41.25 27.5C44.1719 27.5 47.0078 26.3828 48.8125 24.4063C50.3594 22.7734 51.1328 20.625 50.9609 18.3047C50.7891 14.6094 48.2969 10.2266 41.9375 10.2266Z" fill="black"/>
<path fill-rule="evenodd" clip-rule="evenodd" d="M58.4375 33.6875C58.4375 35.2344 58.7812 37.0391 58.5234 38.7578C58.0937 39.5312 57.3203 39.6172 56.6328 39.875C55.6875 39.7031 54.9141 39.1016 54.4844 38.2422C54.2266 36.3516 54.5703 34.4609 54.6562 32.5703L58.4375 33.6875Z" fill="white"/>
<path d="M56.6328 40.2188C55.5156 40.0469 54.6562 39.3594 54.2266 38.4141C54.0547 37.0391 54.1406 35.75 54.2266 34.4609C54.3125 33.8594 54.3125 33.2578 54.3125 32.6563V32.3125L58.6953 33.6875V33.8594C58.6953 34.375 58.7812 34.8906 58.7812 35.4922C58.8672 36.6094 58.9531 37.8125 58.7812 38.9297V39.0156C58.4375 39.7031 57.8359 39.875 57.2344 40.1328C57.0625 40.0469 56.8906 40.1328 56.6328 40.2188ZM54.7422 38.1563C55.0859 38.9297 55.7734 39.4453 56.5469 39.6172C56.7187 39.5312 56.8906 39.5313 56.9766 39.4453C57.4922 39.2734 57.9219 39.1016 58.1797 38.6719C58.3515 37.6406 58.2656 36.5234 58.1797 35.4063C58.1797 34.8906 58.0937 34.375 58.0937 33.9453L54.8281 32.9141C54.8281 33.4297 54.7422 33.9453 54.7422 34.375C54.6562 35.75 54.5703 36.9531 54.7422 38.1563Z" fill="black"/>
<path fill-rule="evenodd" clip-rule="evenodd" d="M39.7891 19.3359C39.7891 21.0547 38.5 22.4297 36.9531 22.4297C35.4062 22.4297 34.1172 21.0547 34.1172 19.3359C34.1172 17.6172 35.4062 16.2422 36.9531 16.2422C38.5 16.2422 39.7891 17.6172 39.7891 19.3359Z" fill="black"/>
<path fill-rule="evenodd" clip-rule="evenodd" d="M38.8438 20.0234C38.8438 20.4531 38.5 20.7969 38.1563 20.7969C37.8125 20.7969 37.4688 20.4531 37.4688 20.0234C37.4688 19.5937 37.8125 19.25 38.1563 19.25C38.5859 19.25 38.8438 19.5937 38.8438 20.0234Z" fill="white"/>
<path fill-rule="evenodd" clip-rule="evenodd" d="M63.7656 18.5625C63.7656 20.2813 62.4766 21.6563 60.9297 21.6563C59.3828 21.6563 58.0938 20.2813 58.0938 18.5625C58.0938 16.8438 59.3828 15.4688 60.9297 15.4688C62.4766 15.4688 63.7656 16.8438 63.7656 18.5625Z" fill="black"/>
<path fill-rule="evenodd" clip-rule="evenodd" d="M62.9062 19.25C62.9062 19.6797 62.6484 20.0234 62.2187 20.0234C61.875 20.0234 61.5312 19.6797 61.5312 19.25C61.5312 18.8203 61.7891 18.4766 62.2187 18.4766C62.5625 18.4766 62.9062 18.8203 62.9062 19.25ZM50.1875 33.5156C48.8984 36.5234 50.875 42.625 54.3125 38.1563C54.0547 36.2656 54.3984 34.375 54.4844 32.4844L50.1875 33.5156Z" fill="white"/>
<path d="M51.9922 40.0469C51.3906 40.0469 50.7891 39.7031 50.3594 39.0156C49.4141 37.6406 49.2422 35.0625 49.9297 33.4297L50.0156 33.2578L54.7422 32.0547V32.3984L54.6563 34.2891C54.5703 35.5781 54.4844 36.7812 54.6563 38.0703V38.1563L54.5703 38.2422C53.7109 39.4453 52.8516 40.0469 51.9922 40.0469ZM50.4453 33.7734C49.9297 35.2344 50.1016 37.5547 50.875 38.6719C51.2188 39.1875 51.5625 39.4453 51.9922 39.4453C52.5938 39.4453 53.2813 38.9297 53.9688 38.0703C53.7969 36.7812 53.8828 35.4922 54.0547 34.2891L54.1406 32.8281L50.4453 33.7734Z" fill="black"/>
<path fill-rule="evenodd" clip-rule="evenodd" d="M50.6172 27.6719C48.2969 27.8438 46.4062 30.6797 47.6094 32.8281C49.2422 35.75 52.7656 32.5703 55 32.8281C57.5781 32.9141 59.6406 35.5781 61.7031 33.3438C64.0234 30.8516 60.6719 28.4453 58.1797 27.3281L50.6172 27.6719Z" fill="#F6D2A2"/>
<path d="M59.8984 34.5469C59.125 34.5469 58.3516 34.2031 57.5781 33.8594C56.8047 33.5156 55.9453 33.1719 55 33.1719H54.7422C54.0547 33.1719 53.2813 33.4297 52.4219 33.7734C51.4766 34.1172 50.5313 34.375 49.6719 34.375C48.6406 34.375 47.8672 33.9453 47.3516 33C46.75 31.9688 46.8359 30.7656 47.4375 29.6484C48.125 28.3594 49.3281 27.5859 50.6172 27.4141L58.2656 27.0703H58.3516C60.2422 27.8438 62.3906 29.3047 62.8203 31.0234C62.9922 31.8828 62.7344 32.7422 62.0469 33.5156C61.3594 34.2891 60.6719 34.5469 59.8984 34.5469ZM55.0859 32.6562C56.0313 32.6562 56.9766 33.0859 57.8359 33.4297C58.6094 33.7734 59.2969 34.0312 59.9844 34.0312C60.5859 34.0312 61.1016 33.7734 61.6172 33.2578C62.2188 32.6563 62.3906 31.9688 62.3047 31.2813C61.9609 29.8203 59.8984 28.4453 58.2656 27.7578L50.7891 28.1016C49.6719 28.1875 48.6406 28.9609 48.0391 29.9922C47.5234 30.9375 47.5234 31.9688 47.9531 32.8281C48.3828 33.6016 48.8984 33.9453 49.7578 33.9453C50.5313 33.9453 51.3906 33.6016 52.25 33.3437C53.1953 33 53.9688 32.7422 54.8281 32.7422C54.8281 32.5703 54.9141 32.5703 55.0859 32.6562Z" fill="#231F20"/>
<path fill-rule="evenodd" clip-rule="evenodd" d="M50.3594 27.5859C50.1875 23.5469 57.9219 23.0313 58.7813 26.3828C59.7266 29.8203 50.7031 30.5937 50.3594 27.5859Z" fill="black"/>
</svg>
