<svg width="110" height="110" viewBox="0 0 110 110" fill="none" xmlns="http://www.w3.org/2000/svg">
<path d="M16.3599 97.8622L7.76187 1.42743H102.238L93.6306 97.8476L54.9424 108.573L16.3599 97.8622Z" fill="#E44D26"/>
<path d="M55 100.375L86.2623 91.7073L93.6177 9.31219H55V100.375Z" fill="#F16529"/>
<path d="M55 45.0785H39.3491L38.268 32.9665H55V21.1398H25.3421L25.6257 24.3126L28.5321 56.9061H55V45.0785ZM55 75.7952L54.9476 75.8098L41.7759 72.252L40.9346 62.8203H29.0606L30.7175 81.3906L54.9459 88.116L55 88.1014V75.7952Z" fill="#EBEBEB"/>
<path d="M54.9587 45.0785V56.9061H69.5226L68.1501 72.2451L54.9587 75.8055V88.1109L79.206 81.3906L79.3839 79.3925L82.1631 48.2548L82.451 45.0785H79.2644H54.9587ZM54.9587 21.1398V32.9665H83.5278L83.765 30.3093L84.3047 24.3126L84.5874 21.1398H54.9587Z" fill="white"/>
</svg>
