<svg width="110" height="110" viewBox="0 0 110 110" fill="none" xmlns="http://www.w3.org/2000/svg">
<path d="M96.9126 26.0683L59.0167 4.06398C56.6268 2.70273 53.515 2.70273 51.1062 4.06398L12.8055 26.0683C10.3391 27.4871 8.59375 30.1538 8.59375 33.006V76.9562C8.59375 79.8084 10.3847 82.4759 12.8511 83.9025L22.9702 89.65C27.8068 92.0322 29.5161 92.0322 31.717 92.0322C38.8781 92.0322 42.9688 87.7018 42.9688 80.1488V36.7589C42.9688 36.1462 42.6499 35.2344 42.0484 35.2344H37.2161C36.6042 35.2344 35.2344 36.1462 35.2344 36.758V80.1479C35.2344 83.496 32.2059 86.8278 26.5461 83.9979L16.0901 77.9711C15.7257 77.7734 15.4688 77.3756 15.4688 76.9562V33.006C15.4688 32.5918 15.9457 32.1759 16.3127 31.9636L54.4895 9.99711C54.8462 9.79516 55.3704 9.79516 55.7262 9.99711L93.4373 31.9584C93.7982 32.1759 93.671 32.5789 93.671 33.006V76.9562C93.671 77.3756 93.8283 77.7838 93.4716 77.9857L55.5852 99.9651C55.2604 100.16 54.8573 100.16 54.5016 99.9651L44.7846 94.1652C44.4916 93.995 44.1435 93.934 43.8625 94.0912C41.1589 95.6235 40.6605 95.8272 38.1245 96.7063C37.5005 96.9237 36.5802 97.301 38.4768 98.3641L51.1938 105.887C52.4079 106.588 53.7853 106.958 55.1873 106.958C56.5984 106.958 57.9803 106.592 59.198 105.887L96.9117 83.9025C99.3781 82.4656 100.547 79.8084 100.547 76.9562V33.006C100.547 30.1538 99.3781 27.494 96.9126 26.0683ZM66.9539 69.9918C56.8769 69.9918 54.6571 67.2117 53.9172 62.2007C53.8313 61.661 53.3732 61.0156 52.8241 61.0156H47.899C47.2897 61.0156 46.7998 61.7547 46.7998 62.3614C46.7998 68.7775 50.2881 76.5514 66.9548 76.5514C79.0195 76.5514 85.9366 71.8635 85.9366 63.5671C85.9366 55.3412 80.3791 53.1824 68.6787 51.6338C56.852 50.0706 55.6506 49.2809 55.6506 46.5102C55.6506 44.226 56.668 41.1795 65.4251 41.1795C73.2497 41.1795 76.1338 42.8587 77.3205 48.1327C77.422 48.6286 77.8748 48.9844 78.3862 48.9844H83.331C83.6352 48.9844 83.9257 48.8615 84.1388 48.6441C84.3451 48.4103 84.4542 48.1173 84.4267 47.8027C83.661 38.7209 77.6273 34.4884 65.4242 34.4884C54.5695 34.4884 48.0941 39.0723 48.0941 46.756C48.0941 55.0902 54.5368 57.3934 64.9567 58.4237C77.422 59.6458 78.3913 61.4677 78.3913 63.9195C78.3913 68.1777 74.9727 69.9918 66.9539 69.9918Z" fill="#83CD29"/>
</svg>
