<svg width="110" height="110" viewBox="0 0 110 110" fill="none" xmlns="http://www.w3.org/2000/svg">
<path d="M80.6171 79.1588C81.2917 73.5445 81.0898 72.7203 85.2715 73.6304L86.3328 73.7232C89.5486 73.8693 93.7552 73.2059 96.2268 72.0577C101.547 69.5888 104.701 65.4681 99.4563 66.55C87.4904 69.019 86.668 64.967 86.668 64.967C99.3034 46.2198 104.585 22.4211 100.025 16.5954C87.5901 0.706407 66.0653 8.21992 65.7052 8.41414L65.5901 8.43562C63.2259 7.94492 60.5799 7.65187 57.6073 7.60375C52.1924 7.51437 48.0838 9.02344 44.9668 11.3867C44.9668 11.3867 6.56734 -4.43352 8.35399 31.2821C8.73383 38.8798 19.244 88.7726 31.7805 73.7026C36.3627 68.1923 40.7902 63.5327 40.7902 63.5327C42.9885 64.9928 45.6216 65.7387 48.382 65.4706L48.5959 65.2884C48.5289 65.9725 48.5581 66.642 48.681 67.4343C45.4523 71.0428 46.4011 71.6762 39.9446 73.0048C33.4116 74.3505 37.2496 76.7474 39.7547 77.3738C42.7926 78.1335 49.8197 79.2094 54.5686 72.563L54.3795 73.321C55.6463 74.3351 55.5612 80.6059 55.7399 85.0859C55.9195 89.5666 56.2195 93.7475 57.133 96.213C58.0465 98.6777 59.1241 105.027 67.6096 103.208C74.7012 101.692 80.123 99.5053 80.6171 79.1588Z" fill="black"/>
<path d="M64.8467 107.642C61.0938 107.642 58.6498 106.19 57.1656 104.789C54.9252 102.675 54.0366 99.9513 53.5055 98.3245L53.2761 97.6456C52.207 94.7598 51.8444 90.6048 51.6295 85.2543C51.5969 84.4508 51.5745 83.6232 51.5496 82.7458C51.5316 82.1038 51.5092 81.2986 51.4766 80.4564C50.1245 81.1011 48.6893 81.5546 47.2123 81.8039C44.5663 82.2559 41.7218 82.1098 38.7561 81.3682C36.6635 80.8448 34.4893 79.7603 33.2501 78.0854C29.6381 81.2487 26.1929 80.8199 24.316 80.1934C21.0048 79.0891 18.0417 75.9859 15.2565 70.7085C13.2722 66.9488 11.3532 62.0503 9.55194 56.1481C6.41522 45.87 4.42233 35.0445 4.2453 31.4901C3.68843 20.3655 6.68335 12.4094 13.145 7.84523C23.338 0.64539 38.7819 4.87953 44.4125 6.80195C48.1955 4.52203 52.6462 3.41258 57.6752 3.4925C60.3762 3.53633 62.9484 3.77352 65.3374 4.19977C67.8296 3.41602 72.7521 2.29109 78.387 2.36156C88.7691 2.48531 97.3723 6.53125 103.265 14.062C107.471 19.4348 105.391 30.7175 103.778 36.9652C101.508 45.7531 97.5296 55.0997 92.6432 63.2363C93.9701 63.2457 95.8925 63.0867 98.6253 62.5221C104.017 61.4092 105.594 64.3002 106.022 65.5944C107.736 70.7867 100.284 74.7106 97.9593 75.79C94.9807 77.1727 90.1244 78.0149 86.1472 77.8327L85.9736 77.8216L84.9286 77.7296L84.8255 78.601L84.7258 79.4527C84.4585 89.7643 82.9855 96.2947 79.9545 100.61C76.7774 105.133 72.3619 106.401 68.4724 107.235C67.1455 107.518 65.9398 107.642 64.8467 107.642ZM56.9491 70.1121C59.3716 72.0509 59.5839 75.6989 59.7738 82.5163C59.7979 83.3671 59.8202 84.1723 59.8503 84.9243C59.9414 87.2016 60.1554 92.5341 60.9907 94.7873C61.1084 95.1062 61.2141 95.4293 61.3259 95.7722C62.2566 98.6219 62.7232 100.051 66.7477 99.1908C70.1259 98.4663 71.8627 97.8166 73.2222 95.8813C75.1979 93.0677 76.303 87.4079 76.5059 79.0591L80.6162 79.1588L76.5342 78.6689L76.6545 77.6497C77.0455 74.2895 77.3274 71.8627 79.573 70.2573C81.3751 68.97 83.4281 69.0946 85.0635 69.3894C83.2666 68.0316 82.7698 66.4391 82.6375 65.786L82.2946 64.0973L83.258 62.6682C88.807 54.4354 93.3823 44.3171 95.8126 34.907C98.3099 25.2381 97.5485 20.1034 96.7871 19.1323C86.7075 6.25281 69.2287 11.5706 67.4034 12.1739L67.0948 12.3406L65.548 12.6285L64.7556 12.4644C62.5711 12.0106 60.1442 11.7597 57.5429 11.7176C53.4557 11.6488 50.1583 12.6148 47.4547 14.6661L45.5787 16.0884L43.4019 15.192C38.7509 13.2902 25.0903 9.46688 17.8819 14.5724C13.8806 17.4066 12.0579 22.9599 12.4635 31.0784C12.5976 33.7588 14.4186 43.9055 17.423 53.7462C21.5746 67.3458 25.3473 71.8635 26.9225 72.3886C27.1975 72.4814 27.9108 71.9271 28.6206 71.0746C31.5803 67.5266 34.6451 64.0675 37.8108 60.702L40.1912 58.1969L43.0693 60.109C44.2294 60.8798 45.5091 61.3173 46.823 61.3998L53.6869 55.5457L52.6926 65.6932C52.6702 65.9209 52.6591 66.2312 52.7484 66.807L53.0475 68.7302L51.7498 70.1809L51.6003 70.3493L55.3712 72.0895L56.9491 70.1121Z" fill="black"/>
<path d="M99.4563 66.55C87.4895 69.019 86.6671 64.967 86.6671 64.967C99.3025 46.2189 104.584 22.4194 100.026 16.5954C87.5909 0.707266 66.0644 8.22078 65.7052 8.41586L65.5892 8.43649C63.2251 7.94578 60.579 7.65359 57.6048 7.60547C52.1898 7.51695 48.0829 9.02516 44.9659 11.3884C44.9659 11.3884 6.56561 -4.43093 8.35139 31.2838C8.73124 38.8824 19.2414 88.7752 31.778 73.7052C36.3601 68.1948 40.7868 63.5353 40.7868 63.5353C42.9859 64.9954 45.6182 65.7413 48.3776 65.4732L48.5925 65.291C48.5255 65.9751 48.5564 66.6445 48.6784 67.4369C45.4489 71.0454 46.3976 71.6788 39.9412 73.0073C33.4082 74.3531 37.2462 76.7499 39.7521 77.3764C42.7891 78.1361 49.8171 79.212 54.5651 72.5656L54.3752 73.3236C55.6411 74.3377 56.5297 79.9167 56.381 84.9741C56.2315 90.0316 56.1318 93.5043 57.1295 96.2165C58.1264 98.9287 59.1198 105.03 67.607 103.212C74.6986 101.692 78.3733 97.7539 78.8855 91.1848C79.2481 86.5141 80.0688 87.2051 80.1212 83.0294L80.7804 81.0528C81.5401 74.7218 80.9007 72.6799 85.2706 73.6295L86.3319 73.7224C89.5477 73.8684 93.7561 73.205 96.2268 72.0569C101.546 69.5896 104.701 65.4681 99.4563 66.55Z" fill="#336791"/>
<path d="M65.2756 105.108C58.2012 105.108 55.9599 99.5053 55.043 97.2142C53.7006 93.8566 53.411 80.8268 53.7101 70.1413C53.7145 69.9611 53.7546 69.7836 53.8279 69.6189C53.9013 69.4543 54.0065 69.3058 54.1375 69.182C54.2685 69.0581 54.4227 68.9615 54.5913 68.8975C54.7598 68.8336 54.9393 68.8036 55.1195 68.8093C55.2995 68.8142 55.4767 68.8545 55.6411 68.928C55.8055 69.0014 55.9538 69.1066 56.0775 69.2374C56.2012 69.3682 56.2979 69.5222 56.3621 69.6904C56.4263 69.8586 56.4567 70.0378 56.4515 70.2178C56.1069 82.5421 56.5959 93.7105 57.5893 96.1959C59.1396 100.071 61.4909 103.46 68.1381 102.036C74.4485 100.683 76.8118 98.2902 77.8646 92.1877C78.6724 87.505 80.2699 74.183 80.4667 71.5541C80.4799 71.3745 80.5284 71.1992 80.6094 71.0383C80.6904 70.8774 80.8024 70.7342 80.9389 70.6166C81.0755 70.4991 81.2338 70.4097 81.405 70.3535C81.5761 70.2973 81.7567 70.2754 81.9363 70.2891C82.2988 70.3166 82.6355 70.4868 82.8727 70.7623C83.1099 71.0378 83.228 71.3961 83.2013 71.7587C82.9959 74.4958 81.406 87.792 80.5673 92.6544C79.3246 99.862 76.1114 103.131 68.7131 104.717C67.4558 104.986 66.3137 105.107 65.2756 105.108ZM26.9165 77.7442C26.2981 77.7421 25.6842 77.6405 25.0981 77.4434C20.503 75.9103 16.1262 68.4269 12.0888 55.1985C9.01572 45.1292 7.06837 34.6191 6.89736 31.203C6.39119 21.0762 8.99853 13.9116 14.6489 9.90945C25.8268 1.98945 44.6308 9.53133 45.4257 9.85617C45.7625 9.99372 46.0308 10.2594 46.1716 10.5948C46.3125 10.9302 46.3144 11.3078 46.1768 11.6445C46.0393 11.9813 45.7736 12.2496 45.4382 12.3905C45.1028 12.5313 44.7252 12.5332 44.3885 12.3956C44.2071 12.3217 26.1757 5.09781 16.2285 12.1507C11.397 15.5762 9.179 21.9407 9.63533 31.0664C9.77884 33.9445 11.5981 44.202 14.7108 54.3976C18.315 66.2071 22.4168 73.6588 25.9652 74.8421C26.522 75.0277 28.2167 75.5923 30.6393 72.6791C33.4645 69.2861 36.3955 65.9828 39.4281 62.7739C39.6819 62.5208 40.0246 62.3771 40.383 62.3735C40.7414 62.3699 41.087 62.5068 41.3457 62.7547C41.6045 63.0027 41.7559 63.3421 41.7676 63.7004C41.7792 64.0586 41.6502 64.4071 41.4081 64.6714C41.3669 64.7144 37.2427 69.0259 32.7482 74.433C30.6195 76.9931 28.5794 77.7442 26.9165 77.7442ZM86.582 66.1899C86.3335 66.1896 86.0896 66.1217 85.8766 65.9935C85.6636 65.8653 85.4895 65.6816 85.3728 65.4621C85.2561 65.2426 85.2013 64.9955 85.2142 64.7473C85.2271 64.499 85.3072 64.2589 85.446 64.0527C98.2188 45.0991 102.702 22.1977 98.8625 17.2906C94.0294 11.1152 87.2051 7.88992 78.5778 7.70344C72.1901 7.56594 67.1129 9.19703 66.2827 9.48148L66.0739 9.56656C65.2395 9.82867 64.5992 9.37148 64.3577 8.83695C64.2201 8.5307 64.1992 8.18465 64.2991 7.86407C64.399 7.54349 64.6127 7.27055 64.9 7.09672C64.9395 7.07351 65.065 7.02023 65.2687 6.94547L65.2506 6.95062L65.2687 6.94461C66.6789 6.42812 71.8335 4.88211 78.2178 4.95515C87.7637 5.05656 95.6493 8.73726 101.02 15.6011C103.562 18.8487 103.568 26.3304 101.037 36.129C98.4569 46.1192 93.6023 56.8554 87.719 65.5858C87.456 65.9785 87.0229 66.1899 86.582 66.1899ZM87.2352 74.9641C85.0541 74.9641 83.099 74.6565 81.9285 73.9552C80.7254 73.2342 80.496 72.2545 80.4659 71.7346C80.1376 65.9682 83.319 64.9645 84.9415 64.5064C84.7155 64.1644 84.3941 63.7622 84.0615 63.3471C83.1153 62.1646 81.8194 60.5455 80.8208 58.1238C80.6644 57.7457 80.1746 56.8666 79.6074 55.8482C76.5317 50.3327 70.1319 38.8558 74.2431 32.9785C76.1458 30.2586 79.9348 29.1878 85.5173 29.7851C83.875 24.7818 76.0547 9.13086 57.4982 8.82664C51.9174 8.73383 47.3404 10.45 43.9012 13.9227C36.2012 21.6992 36.4796 35.7698 36.4839 35.9107C36.4887 36.0907 36.4579 36.2699 36.3934 36.438C36.3289 36.6061 36.2319 36.7599 36.108 36.8905C35.984 37.0211 35.8356 37.1261 35.6711 37.1993C35.5066 37.2726 35.3293 37.3128 35.1493 37.3175C34.9693 37.3222 34.7901 37.2915 34.622 37.227C34.4539 37.1625 34.3001 37.0655 34.1695 36.9416C34.0389 36.8176 33.9339 36.6692 33.8607 36.5047C33.7874 36.3402 33.7473 36.1629 33.7425 35.9829C33.7253 35.3581 33.4383 20.5923 41.953 11.9926C45.9379 7.96812 51.1835 5.98125 57.5438 6.08523C69.4152 6.28031 77.0567 12.3157 81.376 17.3439C86.0845 22.8241 88.3928 28.869 88.5827 30.8868C88.7245 32.3873 87.6477 32.6872 87.4303 32.7319L86.9353 32.743C81.4567 31.8656 77.9419 32.4749 76.4887 34.5512C73.3614 39.0208 79.4157 49.8773 82.0007 54.5136C82.6607 55.6961 83.1368 56.5512 83.3551 57.0788C84.2042 59.1379 85.3119 60.5215 86.2013 61.6335C86.9842 62.6115 87.6623 63.4597 87.9046 64.4548C88.0172 64.6525 89.6148 67.0158 99.0946 65.059C101.471 64.5691 102.896 64.9877 103.331 66.3051C104.188 68.8961 99.3807 71.9185 96.7192 73.1543C94.3345 74.2629 90.5283 74.9641 87.2352 74.9641ZM83.1996 71.5086C83.5003 71.812 85.0051 72.3353 88.1212 72.2012C90.8918 72.0827 93.8137 71.4802 95.5668 70.6664C97.8089 69.6248 99.306 68.4604 100.081 67.6655L99.6514 67.7445C93.5903 68.9958 89.3028 68.8291 86.9086 67.2487C86.7478 67.1423 86.5928 67.0273 86.4445 66.9041C86.185 67.0063 85.9453 67.0734 85.7742 67.1215C84.4164 67.5022 83.0122 67.8966 83.1996 71.5086ZM44.0447 79.1699C42.5391 79.1699 40.9544 78.9645 39.3362 78.5598C37.6595 78.1404 34.8331 76.878 34.876 74.8043C34.925 72.478 38.3084 71.7802 39.582 71.5181C44.1831 70.5702 44.483 70.1903 45.9207 68.3641C46.3401 67.8322 46.8617 67.1696 47.5733 66.3755C48.6295 65.193 49.7836 64.5941 51.0039 64.5941C51.8538 64.5941 52.5508 64.882 53.0114 65.0736C54.4792 65.682 55.7038 67.1533 56.2074 68.9124C56.662 70.4997 56.4446 72.0277 55.5973 73.2145C52.8155 77.11 48.8202 79.1699 44.0447 79.1699ZM37.8383 74.922C38.2517 75.2417 39.0801 75.6688 40.0022 75.8991C41.4038 76.2498 42.7634 76.4277 44.0456 76.4277C47.9523 76.4277 51.089 74.8103 53.3672 71.6203C53.8424 70.9552 53.6998 70.1104 53.5726 69.6661C53.3062 68.7354 52.6445 67.8889 51.963 67.6062C51.5935 67.4532 51.2867 67.3363 51.0048 67.3363C50.8535 67.3363 50.3929 67.3363 49.6177 68.2034C49.0828 68.805 48.5686 69.4247 48.076 70.0614C46.2851 72.3353 45.4644 73.107 40.1363 74.2045C38.836 74.4709 38.1692 74.7424 37.8383 74.922ZM48.382 68.597C48.0546 68.5965 47.7383 68.4789 47.49 68.2655C47.2418 68.0521 47.0781 67.757 47.0285 67.4334C46.9944 67.2058 46.9714 66.9767 46.9597 66.7468C43.4672 66.6815 40.0976 65.1827 37.5392 62.5135C34.3045 59.1387 32.8324 54.4629 33.501 49.6856C34.2272 44.4976 33.9556 39.918 33.8095 37.4576C33.7692 36.7735 33.7399 36.2794 33.7417 35.9373C33.7442 35.5034 33.7528 34.3527 37.5994 32.4027C38.9675 31.7092 41.7106 30.4992 44.7073 30.189C49.6719 29.6759 52.9444 31.8871 53.9241 36.416C56.5684 48.6432 54.1338 54.0512 52.3557 58.0009C52.0249 58.7366 51.712 59.4309 51.462 60.1038L51.2411 60.6968C50.3018 63.2156 49.4897 65.3916 49.7389 67.0166C49.7663 67.1946 49.7583 67.3762 49.7155 67.5511C49.6726 67.726 49.5957 67.8908 49.4892 68.0359C49.3826 68.1811 49.2485 68.3039 49.0945 68.3972C48.9405 68.4905 48.7696 68.5526 48.5917 68.5798L48.382 68.597ZM36.4925 36.3172L36.5458 37.296C36.697 39.8518 36.9789 44.6076 36.2158 50.0663C35.6649 54.0066 36.8681 57.8523 39.5184 60.616C41.6127 62.8006 44.3687 64.0063 47.2012 64.0063H47.2596C47.5767 62.6699 48.1035 61.2588 48.6707 59.7386L48.8899 59.1491C49.1726 58.3894 49.5035 57.6537 49.8541 56.8752C51.5651 53.0733 53.6955 48.3407 51.242 36.9961C50.7564 34.7488 49.5782 33.4486 47.642 33.0198C43.6649 32.1415 37.7378 35.133 36.4925 36.3172ZM44.7683 35.7354C44.6995 36.2201 45.656 37.5143 46.9038 37.687C48.1491 37.8615 49.2147 36.8491 49.2826 36.3645C49.3505 35.8798 48.3949 35.3452 47.147 35.1716C45.9001 34.998 44.8345 35.2507 44.7683 35.7354ZM47.19 38.164L46.8403 38.1399C46.0668 38.0325 45.2848 37.5452 44.7494 36.8354C44.5612 36.5862 44.2544 36.1032 44.3154 35.6718C44.4022 35.0393 45.1739 34.6603 46.3779 34.6603C46.6469 34.6603 46.927 34.6801 47.2089 34.7196C47.8672 34.8107 48.4782 35.0006 48.9294 35.2524C49.7114 35.689 49.769 36.1762 49.7338 36.428C49.6375 37.1267 48.5263 38.164 47.19 38.164ZM45.2229 35.8162C45.2616 36.1152 46.0024 37.1018 46.9666 37.235L47.1909 37.2505C48.0812 37.2505 48.7463 36.5501 48.8245 36.3206C48.742 36.1642 48.1697 35.7758 47.0843 35.6245C46.8506 35.591 46.6148 35.5741 46.3788 35.5738C45.681 35.5738 45.3106 35.7311 45.2229 35.8162ZM82.696 34.7462C82.7638 35.2309 81.8082 36.5252 80.5613 36.6987C79.3152 36.8723 78.2487 35.8609 78.1799 35.3762C78.1146 34.8915 79.0703 34.3561 80.3163 34.1834C81.5624 34.0089 82.6272 34.2624 82.696 34.7462ZM80.2734 36.9462C79.0737 36.9462 78.0381 36.013 77.9531 35.4071C77.8542 34.6801 79.0513 34.1275 80.2837 33.9565C80.5553 33.9187 80.8242 33.8998 81.0829 33.8998C82.1468 33.8998 82.8515 34.2117 82.922 34.7153C82.9675 35.041 82.7174 35.5437 82.2869 35.9975C82.0024 36.2957 81.4052 36.8122 80.5913 36.9248L80.2734 36.9462ZM81.0838 34.357C80.8466 34.357 80.5991 34.375 80.3481 34.4094C79.1098 34.5821 78.3707 35.0788 78.4068 35.3452C78.4481 35.6383 79.2387 36.4899 80.2742 36.4899L80.5295 36.4719C81.2058 36.3782 81.7137 35.9365 81.956 35.6821C82.3367 35.2825 82.488 34.9061 82.4699 34.778C82.4459 34.6079 81.9887 34.357 81.0838 34.357ZM84.4912 62.5814C84.2428 62.5816 83.999 62.5141 83.7859 62.3864C83.5728 62.2586 83.3985 62.0753 83.2817 61.8561C83.1648 61.6369 83.1097 61.39 83.1223 61.1419C83.135 60.8938 83.2148 60.6538 83.3534 60.4476C86.2735 56.0863 85.739 51.639 85.2225 47.3378C85.0017 45.5056 84.7748 43.6107 84.8332 41.7923C84.8934 39.9214 85.1314 38.378 85.3609 36.8852C85.6333 35.1166 85.8911 33.446 85.7845 31.4626C85.7748 31.2828 85.8006 31.1029 85.8605 30.9331C85.9203 30.7633 86.013 30.6069 86.1333 30.4729C86.2535 30.3389 86.399 30.2299 86.5614 30.1522C86.7237 30.0744 86.8998 30.0294 87.0796 30.0197C87.2594 30.01 87.4393 30.0358 87.6091 30.0956C87.7789 30.1554 87.9353 30.2481 88.0693 30.3684C88.2033 30.4887 88.3123 30.6341 88.39 30.7965C88.4678 30.9589 88.5128 31.135 88.5225 31.3148C88.6446 33.5818 88.3532 35.4724 88.0714 37.302C87.8539 38.714 87.6288 40.1741 87.5746 41.8799C87.5222 43.4904 87.7276 45.2005 87.945 47.0104C88.495 51.584 89.1181 56.7677 85.6324 61.973C85.5069 62.1604 85.3371 62.314 85.138 62.4202C84.939 62.5263 84.7168 62.5817 84.4912 62.5814Z" fill="white"/>
</svg>
