<svg width="110" height="110" viewBox="0 0 110 110" fill="none" xmlns="http://www.w3.org/2000/svg">
<path fill-rule="evenodd" clip-rule="evenodd" d="M53.5141 9.35C53.3517 9.44453 52.6702 10.4225 51.9991 11.5234C50.3147 14.288 50.2958 14.2897 48.0331 11.9084C46.5609 10.3598 46.2052 10.0762 45.7308 10.0796C45.4223 10.0813 45.033 10.1862 44.8645 10.3125C44.697 10.4388 44.2217 11.4443 43.8092 12.5469C42.8648 15.0726 42.8192 15.1542 42.2959 15.2548C41.9736 15.3158 41.3531 14.9703 39.8656 13.9021C38.7673 13.1123 37.6896 12.467 37.4713 12.467C36.5656 12.467 36.3103 12.962 35.8789 15.5547C35.3306 18.8513 35.3495 18.8401 32.3778 17.49C31.1781 16.946 30.0403 16.5 29.8487 16.5C29.657 16.5 29.2935 16.7063 29.0417 16.958C28.5845 17.4161 28.5837 17.4178 28.7083 19.9384L28.8338 22.4615L28.3568 22.7167C27.934 22.9427 27.6427 22.9152 25.7709 22.4727C23.3277 21.896 22.8121 21.9115 22.3171 22.5775L21.9553 23.0639L22.4409 25.1445C22.7073 26.2883 22.9642 27.39 23.0123 27.592C23.0596 27.793 22.978 28.1153 22.8302 28.307C22.5861 28.6223 22.3266 28.6507 20.0655 28.6163C16.2388 28.5562 16.0213 28.8845 17.6026 32.3357C18.1053 33.4314 18.517 34.4266 18.517 34.546C18.517 35.1768 18.0142 35.4063 15.8546 35.7586C14.6463 35.9554 13.5962 36.117 13.5205 36.117C13.4449 36.117 13.218 36.282 13.017 36.483C12.3595 37.1405 12.546 37.7575 14.037 39.8621C15.8941 42.4832 15.8907 42.4927 12.8227 43.6666C9.33367 45.0012 9.2632 45.3303 11.9195 47.85C14.3937 50.1961 14.3963 50.1617 11.5955 51.9226C9.47375 53.2555 9.4411 53.2873 9.38695 54.01C9.32164 54.8891 9.33711 54.9046 11.8705 56.4523C14.3756 57.982 14.3756 58.0284 11.917 60.3548C9.27266 62.8556 9.3543 63.2208 12.8459 64.5382C15.8967 65.6889 15.901 65.7027 14.0405 68.3238C12.986 69.8096 12.65 70.4284 12.65 70.8873C12.65 71.7458 13.0969 71.9649 15.767 72.4135C18.0159 72.7925 18.517 73.0151 18.517 73.6356C18.517 73.7627 18.1045 74.7665 17.6 75.8648C16.0308 79.2825 16.2095 79.567 19.9238 79.567C23.3827 79.567 23.2908 79.4613 22.5457 82.5808C21.9837 84.932 21.9751 85.3824 22.4838 85.8902C22.8731 86.2804 23.607 86.2366 25.9024 85.6874C27.6556 85.2689 27.9632 85.2397 28.3697 85.4571L28.8338 85.7055L28.7083 88.2277C28.5837 90.7491 28.5845 90.7509 29.0417 91.2089C29.2935 91.4607 29.6622 91.667 29.8598 91.667C30.0575 91.667 31.1953 91.2235 32.389 90.6813C35.3513 89.3363 35.3323 89.3252 35.8789 92.6114C36.312 95.2162 36.5647 95.7 37.4894 95.7C37.7188 95.7 38.7733 95.0813 39.8338 94.325C41.696 92.9964 42.179 92.7884 42.6748 93.1038C42.8029 93.1846 43.2996 94.276 43.7783 95.529C44.4821 97.3715 44.7399 97.851 45.1318 98.0384C45.8777 98.3959 46.3392 98.1088 48.0924 96.1993C50.209 93.8936 50.2958 93.9048 52.024 96.7055C53.9327 99.7975 54.4268 99.7906 56.3836 96.6427C58.0697 93.9306 58.0499 93.9323 60.329 96.3127C61.8423 97.8923 62.1646 98.1441 62.6751 98.1441C63.0008 98.1441 63.3901 98.022 63.5388 97.8725C63.6883 97.723 64.1833 96.6187 64.6388 95.419C65.0942 94.2184 65.566 93.1735 65.688 93.0961C66.1702 92.7893 66.6695 93.005 68.5291 94.325C69.624 95.1027 70.6544 95.7 70.8993 95.7C71.8085 95.7 72.1368 95.0546 72.5149 92.5177C72.8381 90.3547 72.9034 90.1476 73.3288 89.9319C73.7473 89.7196 73.9982 89.791 75.961 90.6821C77.1547 91.2235 78.2925 91.667 78.4902 91.667C78.6878 91.667 79.0625 91.4547 79.3212 91.1952L79.793 90.7242L79.6632 88.3051C79.5395 85.9951 79.5506 85.8713 79.9193 85.5379C80.2983 85.195 80.337 85.1967 82.4562 85.6806C85.0223 86.2666 85.5009 86.2821 85.9831 85.8C86.454 85.3291 86.4488 85.2259 85.8043 82.5077C85.0816 79.4587 84.9845 79.567 88.458 79.567C90.8256 79.567 91.0895 79.5335 91.3911 79.2009C91.8947 78.644 91.7752 78.0063 90.762 75.8467C90.2507 74.7588 89.8356 73.7688 89.8391 73.6467C89.8563 73.0048 90.3607 72.7856 92.6922 72.4066C94.1188 72.1755 95.1861 71.9074 95.3795 71.7329C96.0274 71.1477 95.7894 70.3863 94.3104 68.3126C92.4567 65.7138 92.4645 65.6889 95.4327 64.5949C98.9871 63.2852 99.0885 62.8487 96.4288 60.3213C93.9649 57.9803 93.9641 57.9932 96.6625 56.3363C99.9247 54.334 99.9299 53.8828 96.7201 51.8908C93.9598 50.1781 93.9615 50.2021 96.4356 47.8526C99.0894 45.3312 99.0172 45.0012 95.5273 43.6666C92.4473 42.4884 92.4378 42.4591 94.3095 39.8905C95.4241 38.3608 95.7 37.8529 95.7 37.3287C95.7 36.4126 95.2892 36.2072 92.5874 35.7706C90.3298 35.4063 89.833 35.1845 89.833 34.5426C89.833 34.4205 90.2456 33.4383 90.75 32.358C91.7374 30.2431 91.8758 29.3966 91.3172 28.8905C91.0173 28.6189 90.6151 28.5802 88.4632 28.6155C86.2117 28.6533 85.9238 28.6215 85.6118 28.3078C85.2706 27.9649 85.2741 27.9168 85.8069 25.6936C86.46 22.9694 86.4626 22.9032 85.9255 22.3988C85.3806 21.8866 85.0403 21.8952 82.5387 22.4838C80.7159 22.9135 80.4143 22.9419 80.0001 22.7202L79.53 22.4684L79.6598 19.9538L79.7904 17.4402L79.3203 16.9701C79.0616 16.7114 78.6947 16.5 78.5039 16.5C78.314 16.5 77.1822 16.9495 75.9894 17.4977C73.9974 18.4147 73.7834 18.4757 73.3528 18.2505C72.9231 18.0254 72.8518 17.8037 72.4849 15.5633C72.0612 12.9714 71.7991 12.467 70.8787 12.467C70.6604 12.467 69.5784 13.1158 68.4741 13.909C66.6609 15.2118 66.4177 15.3347 65.9656 15.1774C65.5918 15.0468 65.3744 14.7623 65.1088 14.0551C64.912 13.5343 64.5356 12.5305 64.2709 11.825C63.7364 10.4019 63.4382 10.083 62.6373 10.083C62.1904 10.083 61.7856 10.4045 60.335 11.9109C58.0551 14.2794 58.0465 14.2785 56.3699 11.5285C55.6995 10.4294 54.9991 9.44797 54.8127 9.34828C54.3933 9.12313 53.9 9.12399 53.5141 9.35ZM55.5921 17.6301C57.5781 19.0438 56.522 22.367 54.0865 22.367C51.7232 22.367 50.533 19.5198 52.2208 17.9034C53.173 16.9907 54.5385 16.8798 55.5921 17.6301ZM53.0948 26.4077C54.3967 26.9027 54.9313 26.6054 57.9038 23.7402L60.1373 21.5866L61.0827 21.7121C64.0475 22.1057 69.9445 24.6959 73.3331 27.0927C76.4466 29.2961 80.5845 33.7838 82.3479 36.8698L82.7252 37.5306L81.0545 41.2947C80.135 43.3649 79.3831 45.2762 79.3831 45.5434C79.3831 46.1596 79.787 47.1341 80.1763 47.4564C80.3404 47.593 81.9002 48.3441 83.6421 49.1253L86.8081 50.5467L86.9327 51.352C87.0934 52.4013 87.1148 54.9785 86.9688 55.7107L86.8545 56.283H85.0472C82.9512 56.283 83.1127 56.0957 82.9993 58.667C82.9168 60.5309 82.4665 61.5613 81.4421 62.2282C79.7732 63.317 77.0172 63.1194 75.8484 61.8277C75.6688 61.6292 75.3199 60.6315 75.0724 59.6097C74.3497 56.6251 73.3786 54.9493 71.4278 53.3191C70.8116 52.8043 70.3081 52.3239 70.3081 52.2509C70.3081 52.1787 70.9852 51.608 71.8137 50.985C74.8301 48.7111 76.5643 46.0642 76.7551 43.4423C77.1186 38.4416 73.1345 33.7803 67.2083 32.2695C65.8032 31.9112 65.2034 31.9 47.8208 31.9C37.9552 31.9 29.883 31.8355 29.883 31.7573C29.883 31.5726 32.0753 29.4448 33.367 28.3774C36.9136 25.4452 41.5207 23.1378 46.292 21.9055L47.942 21.4784L50.2863 23.8554C51.5763 25.1625 52.8404 26.3106 53.0948 26.4077ZM23.5744 41.702C24.6546 42.4093 25.0972 44.1865 24.4595 45.2547C23.473 46.9081 20.9739 46.9777 19.9865 45.3793C18.5505 43.0573 21.3159 40.2222 23.5744 41.702ZM87.2111 41.7923C90.0367 43.5153 87.847 47.7538 84.822 46.4157C82.8025 45.522 82.738 42.7616 84.7129 41.7545C85.537 41.3342 86.4841 41.3488 87.2111 41.7923ZM31.9 52.342V62.883H22.5809L22.2114 61.2795C21.4844 58.1213 21.1784 54.8539 21.3615 52.1778L21.4895 50.2975L24.6933 48.8606C26.7034 47.96 27.9959 47.2734 28.1626 47.0181C28.8913 45.907 28.8217 45.1129 27.7991 42.8545L27.3213 41.8H31.9V52.342ZM58.7297 42.2589C60.7252 42.778 61.7796 43.8341 61.7822 45.3148C61.7839 46.402 61.2451 47.0843 59.9088 47.6876C58.9626 48.1156 58.8122 48.1259 52.8456 48.1843L46.75 48.2427V41.983H52.2113C56.4773 41.983 57.9047 42.0432 58.7297 42.2589ZM56.6706 57.3856C57.6598 57.6606 58.8294 58.52 59.4292 59.4129C60.0591 60.3513 60.4278 61.5716 61.3009 65.6141C62.0383 69.031 62.5127 70.1482 63.8413 71.6023C65.487 73.4027 65.1054 73.3331 73.3262 73.3331C77.263 73.3331 80.4831 73.3958 80.4831 73.4731C80.4831 73.6115 77.7717 76.817 77.6549 76.817C77.6213 76.817 76.2051 76.5205 74.5078 76.1578C69.7151 75.1343 69.5423 75.2546 68.4423 80.3911L67.7351 83.6911L67.0966 84.0056C66.0309 84.5316 62.5677 85.6144 60.7724 85.9839C57.8059 86.5941 54.5772 86.8003 51.7395 86.5606C46.9021 86.1506 40.4963 84.2738 40.2463 83.1918C40.193 82.9624 39.8707 81.4774 39.5313 79.8909C39.1909 78.3045 38.7776 76.7998 38.6126 76.5471C37.8194 75.3371 36.9849 75.2624 33.3154 76.0745C31.9258 76.3821 30.7132 76.6331 30.6204 76.6331C30.4459 76.6331 27.867 73.651 27.867 73.4499C27.867 73.3872 33.9926 73.3141 41.4795 73.2884L55.092 73.242L55.1409 68.4063C55.1753 64.992 55.1281 63.4958 54.9802 63.3188C54.8152 63.1194 53.937 63.067 50.7607 63.067H46.75V57.2L51.3795 57.2009C53.9249 57.2017 56.3063 57.2851 56.6706 57.3856ZM35.695 79.3762C37.8598 80.6953 36.8216 84.1517 34.2616 84.1492C31.6362 84.1474 30.6634 80.7228 32.9003 79.3581C33.6402 78.907 34.9405 78.9156 35.695 79.3762ZM75.3345 79.5205C76.3959 80.2983 76.7491 81.9165 76.0916 82.9941C74.3652 85.8258 70.0477 83.5751 71.4897 80.5956C72.1987 79.1321 74.0833 78.6045 75.3345 79.5205Z" fill="white"/>
</svg>
