<svg width="110" height="110" viewBox="0 0 110 110" fill="none" xmlns="http://www.w3.org/2000/svg">
<path d="M55.0034 22.0017C40.3365 22.0017 31.173 29.3322 27.5034 43.9991C33.0017 36.6678 39.4204 33.9187 46.7517 35.7517C50.9377 36.795 53.9292 39.8303 57.2421 43.1939C62.6338 48.6656 68.8746 55 82.5034 55C97.1695 55 106.334 47.6687 110.003 32.9983C104.504 40.3339 98.0865 43.0831 90.7543 41.25C86.5691 40.2059 83.5811 37.1714 80.2639 33.8078C74.8756 28.3362 68.6366 22.0017 55.0034 22.0017ZM27.5034 55C12.8373 55 3.67296 62.3313 0.00343323 77.0017C5.50171 69.6661 11.9195 66.917 19.2517 68.75C23.4377 69.7941 26.4292 72.8286 29.7421 76.1922C35.1338 81.6638 41.3746 87.9983 55.0034 87.9983C69.6695 87.9983 78.8339 80.6678 82.5034 66.0009C77.0043 73.3322 70.5865 76.0813 63.2543 74.2483C59.0691 73.205 56.0811 70.1697 52.7639 66.8061C47.3756 61.3345 41.1366 55 27.5034 55Z" fill="#38B2AC"/>
</svg>
