<svg width="110" height="110" viewBox="0 0 110 110" fill="none" xmlns="http://www.w3.org/2000/svg">
<path d="M19.482 40.3906H105.136V103.701H19.482V40.3906Z" fill="white"/>
<path d="M1.28906 54.9227V108.634H108.711V1.21172H1.28906V54.9227ZM87.8539 50.6258C90.4268 51.2229 92.7652 52.5685 94.5742 54.493C95.5701 55.5298 96.4359 56.6841 97.1523 57.9305C97.1523 58.068 92.5117 61.2047 89.6844 62.9578C89.5813 63.0266 89.1688 62.5797 88.7133 61.9008C88.1971 61.0102 87.4638 60.2649 86.5817 59.7344C85.6995 59.2039 84.6974 58.9056 83.6687 58.8672C80.4117 58.6437 78.3148 60.3539 78.332 63.1641C78.3051 63.8637 78.4653 64.5579 78.7961 65.175C79.5094 66.6617 80.8414 67.5469 85.018 69.3516C92.7094 72.6602 96.0008 74.843 98.0461 77.9453C100.332 81.3828 100.839 86.9344 99.2922 91.0422C97.5734 95.5109 93.3625 98.5445 87.407 99.55C84.687 99.8615 81.9387 99.8327 79.2258 99.4641C75.0678 98.7787 71.2377 96.7823 68.2945 93.7664C67.3063 92.675 65.3812 89.8305 65.5016 89.6242C65.8153 89.3913 66.1456 89.1817 66.4898 88.9969L70.4688 86.7969L73.5539 85.0094L74.1984 85.9633C75.2862 87.5193 76.6705 88.8451 78.2719 89.8648C81.7094 91.6695 86.4016 91.4203 88.7219 89.332C89.5009 88.5668 89.9869 87.5526 90.0953 86.466C90.2036 85.3794 89.9275 84.2891 89.3148 83.3852C88.4555 82.1906 86.7367 81.1852 81.9328 79.0883C76.3898 76.6992 74.0008 75.2211 71.818 72.8664C70.4553 71.3126 69.4492 69.4793 68.8703 67.4953C68.4385 65.2287 68.3747 62.9073 68.6813 60.6203C69.8242 55.2664 73.8375 51.5281 79.6984 50.4195C82.4127 50.0837 85.1621 50.159 87.8539 50.643V50.6258ZM62.6398 55.1289V59.5289H48.6922V99.2578H38.8008V59.5203H24.8187V55.2234C24.7752 53.7417 24.8096 52.2586 24.9219 50.7805C24.9906 50.7031 33.5156 50.7031 43.8281 50.7031H62.5883L62.6398 55.1289Z" fill="#007ACC"/>
</svg>
