<svg width="110" height="110" viewBox="0 0 110 110" fill="none" xmlns="http://www.w3.org/2000/svg">
<path d="M55.3962 6.13251L7.32961 54.2893L55.2647 102.327L103.463 54.1698L55.3962 6.13251Z" fill="#019833"/>
<path d="M55.2647 102.447L7.19812 54.2902L7.3296 54.1707L55.5276 5.8936L103.594 54.0504L103.463 54.1699L55.2647 102.447ZM7.46109 54.2902L55.2647 102.208L103.331 54.1707L55.5276 6.25282L7.46109 54.2902Z" fill="black"/>
<path d="M55.2647 6.25196V2.05907L2.85226 54.5291H7.32961L55.2647 6.25196Z" fill="#66FE98"/>
<path d="M7.32961 54.5291H2.58844L2.71992 54.4096L55.2638 1.82016V6.25282L7.32875 54.5299L7.32961 54.5291ZM3.11524 54.4096H7.19727L55.1323 6.25282V2.29969L3.11524 54.4105V54.4096Z" fill="black"/>
<path d="M55.1323 6.25196V2.05907L107.545 54.5291H103.067L55.1323 6.25196Z" fill="#45FE02"/>
<path d="M107.677 54.5291H102.936L55.0009 6.37226V1.93961L55.1323 2.05906L107.676 54.5291H107.677ZM103.068 54.4096H107.15L55.2647 2.29882V6.25195L103.068 54.4087V54.4096Z" fill="black"/>
<path d="M55.2647 102.566V106.759L2.85226 54.4096H7.32961L55.2647 102.566Z" fill="#017D17"/>
<path d="M55.2647 106.999L55.1332 106.88L2.58929 54.2902H7.33047L55.2655 102.567V107L55.2647 106.999ZM3.11523 54.4096L55.1323 106.52V102.567L7.19726 54.4105H3.11523V54.4096Z" fill="black"/>
<path d="M28.7951 96.8163H18.6553L14.7048 94.5398V19.4287H11.544L8.91 16.793V8.52758L11.6755 5.53265H47.0998L50.2606 8.76734V16.5541L47.6266 19.7888H44.9926V44.7064L70.1456 19.7888H68.6967L65.7998 16.6745V8.40898L68.6967 5.77328H104.385L107.15 8.64875V16.4355L28.7951 96.8172V96.8163ZM19.7089 92.9827H27.2156L103.464 14.7572V10.0856L102.937 9.48664H70.1465L69.6197 9.96617V14.9978L70.4095 15.8366H79.4956L41.1744 53.6912V15.8366H45.9156L46.5738 15.1181V10.3262L45.6517 9.36804H13.3873L12.7291 10.0865V15.2376L13.1244 15.7171H18.6553V92.2651L19.7089 92.9835V92.9827Z" fill="black"/>
<path d="M55.1323 102.566V106.759L107.545 54.2893H103.067L55.1323 102.566Z" fill="#005D04"/>
<path d="M55.0009 106.999V102.566L102.936 54.2893H107.677L107.546 54.4088L55.0017 106.998L55.0009 106.999ZM55.2638 102.566V106.52L107.281 54.4088H103.199L55.2638 102.566V102.566Z" fill="black"/>
<path d="M54.8694 107.478L1.66719 54.2893L55.0017 0.861099L108.204 54.0495L54.8694 107.478ZM3.37907 54.2893L54.8694 105.921L106.624 54.1698L55.1332 2.5386L3.37907 54.2893Z" fill="black"/>
<path d="M46.7045 10.5652L48.5478 9.60696L46.5721 7.69055H12.5959L10.884 9.36805V15.9569L12.8597 17.8733L13.7818 15.9569L12.5967 14.7589V10.0873L13.5188 9.2486H46.0462L46.7045 10.566V10.5652Z" fill="#FEFEFE"/>
<path d="M12.8605 17.9919L10.7534 15.9552V9.36634L12.5967 7.56938H46.7044L48.8116 9.6061L46.7044 10.6846L45.9147 9.36719H13.3873L12.5976 10.0856V14.6377L13.7827 15.8357L12.8605 17.9919ZM11.0172 15.8357L12.8605 17.6327L13.6503 15.9552L12.4652 14.7572V10.0856L13.3873 9.24688H45.9147L46.7044 10.5643L48.4163 9.6061L46.573 7.80915H12.5967L10.8848 9.48665V15.8357H11.0172Z" fill="black"/>
<path d="M26.4241 93.5816H19.971L18.9174 92.5031V15.9552H13.3865L12.2014 14.8766V10.2051L13.255 9.12657H45.5194L46.7044 10.0848V14.6369L45.3879 15.9543H39.3301V57.1631L75.9395 20.0269V15.9543H70.4086L69.355 14.8758V10.3237L70.6716 9.00626H102.409L103.726 10.3237V13.9176L26.4241 93.5808V93.5816ZM20.1034 93.4622H26.4241L103.463 13.799V10.3245L102.278 9.12657H70.8039L69.6188 10.3245V14.6369L70.6724 15.5951H76.3348V20.0277L39.3301 57.6434V15.7154H45.5194L46.7044 14.5174V10.0848L45.6508 9.24602H13.3865L12.3329 10.2042V14.6369L13.3865 15.5951H19.0489V92.2634L20.1025 93.4613L20.1034 93.4622Z" fill="black"/>
<path d="M18.9183 15.7162V92.3845L19.9719 93.463L19.1821 94.9008L16.9434 92.7446V17.7538L18.9191 15.7171L18.9183 15.7162Z" fill="#FEFEFE"/>
<path d="M19.1813 95.2591L16.8111 92.9826V17.7521L19.0498 15.5959V92.504L20.1034 93.702L19.1813 95.2591ZM17.0741 92.8632L19.1813 94.8999L19.8395 93.5825L18.9174 92.504V15.956L17.0741 17.753V92.8641V92.8632Z" fill="black"/>
<path d="M13.5188 15.7162L12.992 17.5132H17.0741L19.3127 15.7162H13.518H13.5188Z" fill="#808080"/>
<path d="M17.0741 17.7521H12.8597L13.518 15.7154H19.7072L17.0732 17.7521H17.0741ZM12.992 17.5123H16.9426L18.9183 15.8348H13.3873L12.992 17.5123Z" fill="black"/>
<path d="M70.0133 17.8724L70.9354 15.956L69.6188 14.7581V10.6855L71.0677 9.12829H102.41L103.595 10.6855L105.307 9.4875L103.595 7.69055H69.8827L68.1708 9.36805V15.9569L70.0141 17.8733M42.6224 49.3788L39.3302 57.2851L76.3348 20.1489V15.7163L42.6224 49.378V49.3788Z" fill="#FEFEFE"/>
<path d="M39.4616 57.524L39.3302 57.4045L42.6224 49.378L76.4663 15.5959V20.2675L39.4616 57.5231V57.524ZM42.7539 49.4974L39.7255 57.0445L76.3348 20.2675V16.0746L42.7539 49.4974ZM70.0133 17.8716L69.8818 17.7521L68.1699 16.0746V9.36634L69.8818 7.56938H103.726L105.569 9.6061L103.726 10.9235L102.541 9.24602H71.0669L69.618 10.6838V14.7563L70.9345 15.9543L70.0124 17.8707L70.0133 17.8716ZM68.3014 16.0746L70.0133 17.6318L70.803 15.9543L69.4865 14.7563V10.5634L71.0669 9.00626H102.541L103.726 10.5634L105.306 9.48493L103.594 7.80743H69.8818L68.3014 9.48493V16.0738V16.0746Z" fill="black"/>
<path d="M46.573 10.3254L48.1534 9.24687V15.7154L46.31 17.6318H42.6224V49.4974L39.3302 57.4037V15.7154H45.3879L46.573 14.7572V10.3245V10.3254Z" fill="#808080"/>
<path d="M39.4616 57.4045H39.3302V15.7162H45.5194L46.573 14.8775V10.4448L48.4163 9.24687V15.9552L46.4406 17.8716H42.8854V49.6169L39.4616 57.4037V57.4045ZM39.4616 15.8357V56.925L42.6224 49.4974V17.5123H46.31L48.1534 15.7154V9.48578L46.7045 10.444V14.8766L45.5194 15.8348H39.4616V15.8357Z" fill="black"/>
<path d="M70.8039 9.12743L69.6188 10.3254V14.7581L70.6724 15.8366H76.2034V20.1489L39.3301 57.4045V15.8357H45.3879L46.7044 14.6377V10.2051L45.5194 9.36633H13.3873L12.3337 10.4448V14.997L13.3873 16.0755H19.0498V92.6234L20.1033 93.702H26.4241L103.594 14.0388V10.5643L102.409 9.36633H70.8039V9.12743Z" fill="#CCCCCC"/>
<path d="M26.4241 93.5816H19.971L18.9174 92.5031V15.9552H13.3865L12.2014 14.8766V10.2051L13.255 9.12657H45.5194L46.7044 10.0848V14.6369L45.3879 15.9543H39.3301V57.1631L75.9395 20.0269V15.9543H70.4086L69.355 14.8758V10.3237L70.6716 9.00626H102.409L103.726 10.3237V13.9176L26.4241 93.5808V93.5816ZM20.1034 93.4622H26.4241L103.463 13.799V10.3245L102.278 9.12657H70.8039L69.6188 10.3245V14.6369L70.6724 15.5951H76.3348V20.0277L39.3301 57.6434V15.7154H45.5194L46.7044 14.5174V10.0848L45.6508 9.24602H13.3865L12.3329 10.2042V14.6369L13.3865 15.5951H19.0489V92.2634L20.1025 93.4613L20.1034 93.4622Z" fill="black"/>
<path d="M103.727 10.4449L105.438 9.48665V15.5959L27.7415 95.1388H19.4451L20.2348 93.5816H26.5556L103.594 13.9184L103.726 10.444L103.727 10.4449Z" fill="#808080"/>
<path d="M27.7415 95.2591H19.3136L20.2357 93.4622H26.5564L103.463 13.9193L103.594 10.4448L105.438 9.36633V15.8348L27.7406 95.2583L27.7415 95.2591ZM19.5766 95.0194H27.61L105.307 15.5959V9.6061L103.727 10.4448L103.595 13.9193L26.5564 93.702H20.2357L19.5774 95.0194H19.5766Z" fill="black"/>
<path d="M76.2033 15.8357L74.4915 17.6327H70.0141L71.0677 15.8357H76.2033Z" fill="#808080"/>
<path d="M74.4915 17.7521H69.7503L70.9354 15.7154H76.4663L74.4906 17.7521H74.4915ZM70.1456 17.6327H74.4915L76.0719 15.9552H71.1992L70.1456 17.6327Z" fill="black"/>
<path d="M57.7663 60.6384C57.7663 60.6384 57.6348 60.6384 57.6348 60.7578L56.1859 62.0752L56.0544 62.1947L54.6055 66.3876C54.6055 66.507 54.6055 66.6273 54.737 66.7468L55.9221 67.9448C56.0536 68.0642 56.0536 68.0642 56.1851 68.0642H60.7939C60.9254 68.0642 60.9254 68.0642 61.0569 67.9448L62.2419 66.7468L62.3734 66.6273L63.69 62.1947C63.69 62.0752 63.69 61.9549 63.5585 61.8355L62.5049 60.8773C62.3734 60.7578 62.3734 60.7578 62.2419 60.7578H57.7646V60.6384H57.7663ZM49.2061 72.4977C49.0746 72.4977 48.9431 72.6172 48.9431 72.7375L48.4163 75.014C48.4163 75.2537 48.5478 75.3732 48.6793 75.4935H51.5762L44.8602 94.6602C44.8602 94.8999 44.8602 95.0194 45.1232 95.1397H55C55.1315 95.1397 55.263 95.0202 55.3953 94.8999L56.0536 92.8632C56.0536 92.6234 56.0536 92.504 55.7906 92.3837H53.4205L60.1365 72.9773C60.1365 72.7375 60.1365 72.618 59.8735 72.4977H49.2069H49.2061ZM80.4169 72.6172C80.2854 72.6172 80.2854 72.6172 80.2854 72.7366L78.3097 75.0131H75.0174L72.9102 72.7366C72.9102 72.6172 72.7787 72.6172 72.6473 72.6172H64.7462C64.6147 72.6172 64.4832 72.7366 64.4832 72.8569L63.8249 75.0131C63.8249 75.2529 63.8249 75.3723 64.0879 75.4927H66.3266L59.8735 94.5398C59.8735 94.7796 59.8735 94.8991 60.1365 95.0194H68.5644C68.6959 95.0194 68.8273 94.8999 68.8273 94.7796L69.4856 92.9827C69.4856 92.7429 69.4856 92.6234 69.2227 92.5031H67.6423L71.7243 79.5652H79.0986L74.3574 94.6593C74.3574 94.8991 74.3574 95.0185 74.6204 95.1388H82.653C82.7845 95.1388 82.9159 95.0194 82.9159 94.8991L83.5742 93.2216C83.7057 93.1021 83.5742 92.8623 83.4427 92.742H81.8623L86.0767 79.5644H93.188L88.4469 94.6584C88.4469 94.8982 88.4469 95.0177 88.7098 95.138H97.533C97.6645 95.138 97.796 95.0185 97.796 94.8982L98.4543 93.1012C98.4543 92.8615 98.4543 92.742 98.1913 92.6217H96.348L101.616 75.4909V75.1317L100.036 72.9755C99.9041 72.8561 99.9041 72.8561 99.7726 72.8561H93.5834C93.4519 72.8561 93.4519 72.8561 93.3204 72.9755L91.3447 75.1317H87.9209L85.9452 72.8552C85.8137 72.7358 85.8137 72.7358 85.6823 72.7358H80.4143V72.6163L80.4169 72.6172Z" fill="#CCCCCC"/>
<path d="M54.8694 95.9776H45.1241C44.9926 95.9776 44.8611 95.9776 44.7288 95.8581C44.0705 95.6184 43.8066 95.0194 43.939 94.4204L50.2597 76.3314H48.4163C47.758 76.2119 47.3627 75.4927 47.6266 74.8937L48.1534 72.6172C48.2848 72.1377 48.5487 71.8987 49.0755 71.7784H59.6105C59.742 71.7784 59.8735 71.7784 60.0059 71.8979C60.6641 72.1377 60.928 72.7366 60.7956 73.3356L54.4749 91.6644H55.9238C56.5821 91.9041 56.8459 92.5031 56.7136 93.1021L56.0553 95.1388C55.7923 95.6184 55.397 95.9776 54.8702 95.9776H54.8694ZM51.4456 74.6539H52.6307L45.7832 94.3001H54.6064L55.0017 93.2216H52.2363L59.0838 73.3356H49.8652L49.4699 74.653H51.4456V74.6539ZM97.405 95.7378H88.318C87.6597 95.498 87.3959 94.8991 87.5282 94.3001L92.0055 80.2845H86.6061L82.9185 91.7847H83.1815C83.313 91.7847 83.4445 91.7847 83.5768 91.9041C84.2351 92.1439 84.4989 92.8623 84.2351 93.4613L83.5768 95.1388C83.4453 95.6184 82.9185 95.8573 82.5232 95.8573H74.2268C73.5685 95.6175 73.3047 95.0185 73.437 94.4195L77.9144 80.2837H72.1196L68.5644 91.5441H68.8273C68.9588 91.5441 69.0903 91.5441 69.2227 91.6635C69.8809 91.9033 70.1448 92.5023 70.0124 93.1012L69.3541 95.0177C69.2227 95.4972 68.6959 95.7361 68.3005 95.8564H60.0041C59.8727 95.8564 59.7412 95.8564 59.6088 95.7369C58.9505 95.4972 58.6867 94.8982 58.8191 94.2992L64.8768 76.3297H63.9547C63.8232 76.3297 63.6917 76.3297 63.5594 76.2102C62.9011 75.9705 62.6373 75.3715 62.7696 74.7725L63.4279 72.6163C63.5594 72.1368 64.0862 71.7776 64.4815 71.7776H72.2511C72.5141 71.7776 72.9094 71.897 73.0409 72.1368L75.0166 74.1735H77.5191L79.3624 72.1368C79.4939 71.897 79.7577 71.7776 80.0207 71.7776H85.2878C85.5508 71.7776 85.9461 71.897 86.0776 72.1368L87.9209 74.0532H90.6864L92.3983 72.1368C92.6612 71.897 92.9251 71.7776 93.188 71.7776H99.3773C99.7726 71.7776 100.036 71.897 100.299 72.2571L101.88 74.4133C102.143 74.653 102.143 75.1317 102.011 75.4918L97.1386 91.5441H97.7969C97.9284 91.5441 98.0598 91.5441 98.1922 91.6635C98.8505 91.9033 99.1143 92.5023 98.8505 93.1012L98.1922 95.0177C98.3237 95.3769 97.9292 95.7361 97.4024 95.7361L97.405 95.7378ZM66.1942 74.6539H67.3793L60.7948 94.0603H68.0376L68.3005 93.1021H66.4572L71.066 78.4876H80.1522L75.2795 94.0612H82.2594L82.5223 93.3427H80.679L85.4202 78.6079H94.2434L89.3707 94.1815H97.1403L97.5356 93.2233H95.4284L100.959 75.2537L99.6428 73.4568H93.848L91.7409 75.7333H87.5265L85.4193 73.3373H80.8105L78.7033 75.7333H74.7527L72.5141 73.3373H65.2713L64.8759 74.5353H66.1925L66.1942 74.6539ZM60.5318 68.7844H55.923C55.66 68.7844 55.2647 68.6649 55.1332 68.4252L53.9481 67.2272C53.6852 66.868 53.5528 66.3884 53.6852 66.0292L55.1341 61.8363C55.1341 61.5966 55.2655 61.4771 55.397 61.3568L56.8459 60.0394C56.9774 59.9199 57.1089 59.7996 57.3727 59.7996H61.8501C62.113 59.7996 62.3769 59.9191 62.6398 60.1588L63.6934 61.117C63.9564 61.3568 64.0887 61.8355 63.9564 62.315L62.6398 66.7477C62.6398 66.9874 62.5084 67.1069 62.3769 67.2272L61.1918 68.4252C61.1918 68.6649 60.7965 68.7844 60.5335 68.7844H60.5318ZM55.3962 66.3884L56.1859 67.2272H60.4003L61.3224 66.269L62.5075 62.1964L61.8492 61.5974H57.8987L56.5821 62.6759L55.397 66.3893L55.3962 66.3884Z" fill="black"/>
<path d="M57.7663 60.9984L56.3174 62.3159L54.8685 66.5088L56.0536 67.7067H60.6624L61.8475 66.5088L63.1641 62.0761L62.1105 61.1179H57.7646L57.7663 60.9984ZM49.3384 72.8578L48.8116 75.1343H51.9724L45.1249 94.7805H54.8702L55.5285 92.7438H52.8945L59.742 72.8578H49.3384ZM80.4169 72.8578L78.3097 75.2538H74.7545L72.5158 72.8578H64.7462L64.0879 75.014H66.5904L60.0059 94.4204H68.3023L68.9606 92.6234H66.9848L71.3307 79.0866H79.4956L74.623 94.5399H82.5241L83.1823 92.8623H81.2066L85.5525 78.9663H93.3221L88.4495 94.5399H97.1412L97.7995 92.7429H95.5608L100.96 75.2529L99.3798 73.0967H93.1906L91.0834 75.3732H87.2644L85.1572 72.9773H80.416L80.4169 72.8578Z" fill="#CCCCCC"/>
<path d="M55.0009 94.8999H44.9926L51.8401 75.2537H48.6793L49.3376 72.7384H59.8727L52.8928 92.6243H55.5268L55 94.9008L55.0009 94.8999ZM45.2556 94.6602H54.8685L55.3953 92.7437H52.7613L59.4773 72.9781H49.4691L48.9423 75.0148H52.1031L45.2556 94.661V94.6602ZM97.5365 94.6602H88.5818L93.4545 79.0866H85.8163L81.4705 92.7429H83.4462L82.6564 94.6593H74.4915L79.3641 79.206H71.4631L67.2487 92.6226H69.2244L68.5661 94.6593H60.1382L66.7227 75.2529H64.2202L65.01 72.9764H72.9111L75.1498 75.3723H78.5735L80.6807 72.9764H85.8163L87.9235 75.3723H91.6111L93.7183 73.0959H100.039L101.751 75.3723L96.3514 92.7429H98.5901L97.5365 94.6593V94.6602ZM88.8448 94.4204H97.405L98.0633 92.7429H95.8246L101.224 75.1334L99.6437 72.9773H93.4545L91.3473 75.2537H87.5282L85.421 72.8578H80.5484L78.4412 75.2537H74.7536L72.5149 72.8578H64.8768L64.2185 74.7742H66.721L60.1365 94.1806H68.1699L68.6967 92.5031H66.721L71.0669 78.7265H79.4948L74.6221 94.1798H82.3917L83.05 92.6226H81.2066L85.684 78.607H93.7174L88.8448 94.4195V94.4204ZM60.5318 67.7067H55.7906L54.6056 66.5087L56.1859 62.1964L57.7663 60.879H62.1122L63.1658 61.9575L61.8492 66.3901L60.5327 67.7076L60.5318 67.7067ZM55.923 67.5873H60.4003L61.5854 66.3893L62.902 62.0769L61.9799 61.1187H57.7655L56.3166 62.3167L54.8677 66.3893L55.9213 67.5873H55.923Z" fill="black"/>
</svg>
